<?xml version="1.0" encoding="UTF-8"?>
<svg width="128" height="128" viewBox="0 0 128 128" xmlns="http://www.w3.org/2000/svg">
  <defs>
    <linearGradient id="cameraGradient" x1="0%" y1="0%" x2="100%" y2="100%">
      <stop offset="0%" style="stop-color:#4A90E2;stop-opacity:1" />
      <stop offset="100%" style="stop-color:#357ABD;stop-opacity:1" />
    </linearGradient>
    <linearGradient id="lensGradient" x1="0%" y1="0%" x2="100%" y2="100%">
      <stop offset="0%" style="stop-color:#F5A623;stop-opacity:1" />
      <stop offset="100%" style="stop-color:#D68910;stop-opacity:1" />
    </linearGradient>
    <linearGradient id="screenGradient" x1="0%" y1="0%" x2="100%" y2="100%">
      <stop offset="0%" style="stop-color:#50E3C2;stop-opacity:1" />
      <stop offset="100%" style="stop-color:#4ECDC4;stop-opacity:1" />
    </linearGradient>
  </defs>
  
  <!-- Background circle -->
  <circle cx="64" cy="64" r="60" fill="url(#cameraGradient)" stroke="#2C3E50" stroke-width="2"/>
  
  <!-- Camera body -->
  <rect x="24" y="40" width="80" height="48" rx="8" ry="8" fill="#34495E" stroke="#2C3E50" stroke-width="2"/>
  
  <!-- Camera lens -->
  <circle cx="64" cy="64" r="20" fill="url(#lensGradient)" stroke="#2C3E50" stroke-width="2"/>
  <circle cx="64" cy="64" r="12" fill="#2C3E50"/>
  <circle cx="64" cy="64" r="6" fill="url(#lensGradient)"/>
  
  <!-- Viewfinder -->
  <rect x="84" y="44" width="12" height="8" rx="2" ry="2" fill="#E74C3C"/>
  
  <!-- Flash -->
  <rect x="32" y="44" width="8" height="6" rx="1" ry="1" fill="#F39C12"/>
  
  <!-- Screen representation (for screenshot) -->
  <rect x="20" y="96" width="88" height="24" rx="4" ry="4" fill="url(#screenGradient)" stroke="#2C3E50" stroke-width="1"/>
  
  <!-- Screenshot indicator lines -->
  <line x1="28" y1="104" x2="44" y2="104" stroke="#2C3E50" stroke-width="2" stroke-linecap="round"/>
  <line x1="28" y1="108" x2="60" y2="108" stroke="#2C3E50" stroke-width="2" stroke-linecap="round"/>
  <line x1="28" y1="112" x2="52" y2="112" stroke="#2C3E50" stroke-width="2" stroke-linecap="round"/>
  
  <!-- Annotation pen icon -->
  <g transform="translate(88, 100)">
    <line x1="2" y1="14" x2="14" y2="2" stroke="#E74C3C" stroke-width="3" stroke-linecap="round"/>
    <circle cx="15" cy="1" r="2" fill="#E74C3C"/>
    <line x1="0" y1="16" x2="4" y2="12" stroke="#E74C3C" stroke-width="2" stroke-linecap="round"/>
  </g>
  
  <!-- Highlight/shine effect -->
  <ellipse cx="52" cy="48" rx="8" ry="4" fill="#FFFFFF" opacity="0.3"/>
</svg>

